<?xml version="1.0" encoding="UTF-8" standalone="no"?>
<!DOCTYPE svg PUBLIC "-//W3C//DTD SVG 1.1//EN"
 "http://www.w3.org/Graphics/SVG/1.1/DTD/svg11.dtd">
<!-- Generated by graphviz version 2.44.1 (0)
 -->
<!-- Pages: 1 -->
<svg width="836pt" height="463pt"
 viewBox="0.00 0.00 835.79 463.00" xmlns="http://www.w3.org/2000/svg" xmlns:xlink="http://www.w3.org/1999/xlink">
<g id="graph0" class="graph" transform="scale(1 1) rotate(0) translate(4 459)">
<polygon fill="white" stroke="transparent" points="-4,4 -4,-459 831.79,-459 831.79,4 -4,4"/>
<g id="clust1" class="cluster">
<title>cluster0</title>
<polygon fill="none" stroke="transparent" points="8,-8 8,-447 366,-447 366,-8 8,-8"/>
<text text-anchor="start" x="168.5" y="-432.8" font-family="Times,serif" text-decoration="underline" font-size="14.00" fill="green">test1</text>
</g>
<g id="clust2" class="cluster">
<title>cluster1</title>
<polygon fill="none" stroke="green" points="16,-16 16,-326.5 260,-326.5 260,-16 16,-16"/>
<text text-anchor="start" x="126.5" y="-312.3" font-family="Times,serif" text-decoration="underline" font-size="14.00" fill="green">m1</text>
</g>
<g id="clust3" class="cluster">
<title>cluster2</title>
<polygon fill="none" stroke="green" points="268,-269 268,-416 358,-416 358,-269 268,-269"/>
<text text-anchor="start" x="301.5" y="-401.8" font-family="Times,serif" text-decoration="underline" font-size="14.00" fill="green">m2</text>
</g>
<!-- main -->
<g id="node1" class="node">
<title>main</title>
<ellipse fill="none" stroke="black" cx="138" cy="-367" rx="33.6" ry="18"/>
<text text-anchor="middle" x="138" y="-363.3" font-family="Times,serif" font-size="14.00">main</text>
</g>
<!-- m1::foo3::&lt;fn() {m2::bar}&gt; -->
<g id="node2" class="node">
<title>m1::foo3::&lt;fn() {m2::bar}&gt;</title>
</g>
<!-- main&#45;&gt;m1::foo3::&lt;fn() {m2::bar}&gt; -->
<g id="edge1" class="edge">
<title>main&#45;&gt;m1::foo3::&lt;fn() {m2::bar}&gt;</title>
<path fill="none" stroke="black" d="M145.02,-349.05C153.33,-328.99 166.17,-298.01 166.96,-296.09"/>
</g>
<!-- m1::foo1::&lt;fn() {m2::bar}&gt; -->
<g id="node3" class="node">
<title>m1::foo1::&lt;fn() {m2::bar}&gt;</title>
</g>
<!-- main&#45;&gt;m1::foo1::&lt;fn() {m2::bar}&gt; -->
<g id="edge2" class="edge">
<title>main&#45;&gt;m1::foo1::&lt;fn() {m2::bar}&gt;</title>
<path fill="none" stroke="black" d="M130.98,-349.05C122.67,-328.99 109.83,-298.01 109.04,-296.09"/>
</g>
<!-- m1::foo3 -->
<g id="node8" class="node">
<title>m1::foo3</title>
<text text-anchor="middle" x="187" y="-219.3" font-family="Times,serif" font-size="14.00">m1::foo3</text>
</g>
<!-- m1::foo3::&lt;fn() {m2::bar}&gt;&#45;&gt;m1::foo3 -->
<g id="edge9" class="edge">
<title>m1::foo3::&lt;fn() {m2::bar}&gt;&#45;&gt;m1::foo3</title>
<path fill="none" stroke="black" d="M166.6,-293.95C162.04,-292.74 166.47,-270.01 172.76,-250.79"/>
<polygon fill="black" stroke="black" points="176.12,-251.79 176.18,-241.19 169.53,-249.44 176.12,-251.79"/>
</g>
<!-- m2::bar -->
<g id="node9" class="node">
<title>m2::bar</title>
<text text-anchor="middle" x="313" y="-363.3" font-family="Times,serif" font-size="14.00">m2::bar</text>
</g>
<!-- m1::foo3::&lt;fn() {m2::bar}&gt;&#45;&gt;m2::bar -->
<g id="edge18" class="edge">
<title>m1::foo3::&lt;fn() {m2::bar}&gt;&#45;&gt;m2::bar</title>
<path fill="none" stroke="black" stroke-dasharray="1,5" d="M167.05,-296.02C168.95,-296.94 226.06,-324.32 268.26,-344.55"/>
<polygon fill="black" stroke="black" points="266.75,-347.71 277.28,-348.88 269.78,-341.4 266.75,-347.71"/>
</g>
<!-- m1::foo1 -->
<g id="node4" class="node">
<title>m1::foo1</title>
<text text-anchor="middle" x="90" y="-219.3" font-family="Times,serif" font-size="14.00">m1::foo1</text>
</g>
<!-- m1::foo1::&lt;fn() {m2::bar}&gt;&#45;&gt;m1::foo1 -->
<g id="edge11" class="edge">
<title>m1::foo1::&lt;fn() {m2::bar}&gt;&#45;&gt;m1::foo1</title>
<path fill="none" stroke="black" d="M108.57,-293.95C103.36,-292.74 95.18,-270.22 90.75,-251.06"/>
<polygon fill="black" stroke="black" points="94.17,-250.3 88.76,-241.19 87.31,-251.69 94.17,-250.3"/>
</g>
<!-- m1::foo1::&lt;fn() {m2::bar}&gt;&#45;&gt;m2::bar -->
<g id="edge19" class="edge">
<title>m1::foo1::&lt;fn() {m2::bar}&gt;&#45;&gt;m2::bar</title>
<path fill="none" stroke="black" stroke-dasharray="1,5" d="M109.07,-296.06C110.57,-297.31 134.88,-317.4 158,-326.5 203.43,-344.38 220.99,-335.09 267.28,-347.49"/>
<polygon fill="black" stroke="black" points="266.35,-350.87 276.93,-350.27 268.29,-344.14 266.35,-350.87"/>
</g>
<!-- m1::foo1&#45;&gt;m1::foo1::&lt;fn() {m2::bar}&gt; -->
<g id="edge12" class="edge">
<title>m1::foo1&#45;&gt;m1::foo1::&lt;fn() {m2::bar}&gt;</title>
<path fill="none" stroke="black" stroke-dasharray="1,5" d="M100.57,-241.19C108.17,-261.44 114.78,-292.53 109.4,-293.95"/>
</g>
<!-- m1::foo2::&lt;F&gt; -->
<g id="node5" class="node">
<title>m1::foo2::&lt;F&gt;</title>
</g>
<!-- m1::foo1&#45;&gt;m1::foo2::&lt;F&gt; -->
<g id="edge3" class="edge">
<title>m1::foo1&#45;&gt;m1::foo2::&lt;F&gt;</title>
<path fill="none" stroke="black" d="M99.1,-204.94C111.58,-189.69 131.77,-169.64 137.73,-169.01"/>
</g>
<!-- m1::foo2::&lt;F&gt;&#45;&gt;m1::foo1 -->
<g id="edge15" class="edge">
<title>m1::foo2::&lt;F&gt;&#45;&gt;m1::foo1</title>
<path fill="none" stroke="black" stroke-dasharray="1,5" d="M138.46,-169.06C141.92,-170.08 131.18,-184.24 118.78,-197.65"/>
<polygon fill="black" stroke="black" points="116.19,-195.29 111.81,-204.94 121.25,-200.14 116.19,-195.29"/>
</g>
<!-- m1::foo2 -->
<g id="node6" class="node">
<title>m1::foo2</title>
<text text-anchor="middle" x="138" y="-110.3" font-family="Times,serif" font-size="14.00">m1::foo2</text>
</g>
<!-- m1::foo2::&lt;F&gt;&#45;&gt;m1::foo2 -->
<g id="edge13" class="edge">
<title>m1::foo2::&lt;F&gt;&#45;&gt;m1::foo2</title>
<path fill="none" stroke="black" d="M137.58,-167.96C133.47,-167.19 131.36,-155 131.25,-142.51"/>
<polygon fill="black" stroke="black" points="134.76,-142.32 131.63,-132.19 127.77,-142.06 134.76,-142.32"/>
</g>
<!-- m1::foo2::&lt;F&gt;&#45;&gt;m1::foo3 -->
<g id="edge16" class="edge">
<title>m1::foo2::&lt;F&gt;&#45;&gt;m1::foo3</title>
<path fill="none" stroke="black" stroke-dasharray="1,5" d="M138.27,-169.01C143.27,-169.54 158.46,-183.63 170.77,-197.15"/>
<polygon fill="black" stroke="black" points="168.36,-199.72 177.58,-204.94 173.63,-195.11 168.36,-199.72"/>
</g>
<!-- m1::foo2&#45;&gt;m1::foo2::&lt;F&gt; -->
<g id="edge14" class="edge">
<title>m1::foo2&#45;&gt;m1::foo2::&lt;F&gt;</title>
<path fill="none" stroke="black" stroke-dasharray="1,5" d="M144.37,-132.19C145.66,-147.28 143.68,-166.98 138.42,-167.96"/>
</g>
<!-- &lt;F as std::ops::Fn&lt;()&gt;&gt;::call -->
<g id="node7" class="node">
<title>&lt;F as std::ops::Fn&lt;()&gt;&gt;::call</title>
<text text-anchor="middle" x="138" y="-38.3" font-family="Times,serif" font-size="14.00">&lt;F as std::ops::Fn&lt;()&gt;&gt;::call</text>
</g>
<!-- m1::foo2&#45;&gt;&lt;F as std::ops::Fn&lt;()&gt;&gt;::call -->
<g id="edge4" class="edge">
<title>m1::foo2&#45;&gt;&lt;F as std::ops::Fn&lt;()&gt;&gt;::call</title>
<path fill="none" stroke="black" d="M132.08,-95.7C131.29,-87.98 131.06,-78.71 131.4,-70.11"/>
<polygon fill="black" stroke="black" points="134.9,-70.32 132.1,-60.1 127.92,-69.84 134.9,-70.32"/>
</g>
<!-- &lt;F as std::ops::Fn&lt;()&gt;&gt;::call&#45;&gt;m1::foo2 -->
<g id="edge17" class="edge">
<title>&lt;F as std::ops::Fn&lt;()&gt;&gt;::call&#45;&gt;m1::foo2</title>
<path fill="none" stroke="black" stroke-dasharray="1,5" d="M143.9,-60.1C144.7,-67.79 144.94,-77.05 144.6,-85.67"/>
<polygon fill="black" stroke="black" points="141.11,-85.48 143.92,-95.7 148.09,-85.96 141.11,-85.48"/>
</g>
<!-- m1::foo3&#45;&gt;m1::foo3::&lt;fn() {m2::bar}&gt; -->
<g id="edge10" class="edge">
<title>m1::foo3&#45;&gt;m1::foo3::&lt;fn() {m2::bar}&gt;</title>
<path fill="none" stroke="black" stroke-dasharray="1,5" d="M187.99,-241.19C184.31,-261.44 173.6,-292.53 167.43,-293.95"/>
</g>
<!-- m1::foo3&#45;&gt;m1::foo2::&lt;F&gt; -->
<g id="edge5" class="edge">
<title>m1::foo3&#45;&gt;m1::foo2::&lt;F&gt;</title>
<path fill="none" stroke="black" d="M164.87,-204.94C149.68,-189.93 133.46,-170.27 137.54,-169.06"/>
</g>
<!-- m2::baz -->
<g id="node10" class="node">
<title>m2::baz</title>
<text text-anchor="middle" x="313" y="-291.3" font-family="Times,serif" font-size="14.00">m2::baz</text>
</g>
<!-- m2::bar&#45;&gt;m2::baz -->
<g id="edge6" class="edge">
<title>m2::bar&#45;&gt;m2::baz</title>
<path fill="none" stroke="black" d="M313,-348.7C313,-340.98 313,-331.71 313,-323.11"/>
<polygon fill="black" stroke="black" points="316.5,-323.1 313,-313.1 309.5,-323.1 316.5,-323.1"/>
</g>
<!-- std::fmt::Arguments::new_v1 -->
<g id="node11" class="node">
<title>std::fmt::Arguments::new_v1</title>
<ellipse fill="none" stroke="black" cx="519" cy="-223" rx="144.87" ry="18"/>
<text text-anchor="middle" x="519" y="-219.3" font-family="Times,serif" font-size="14.00">std::fmt::Arguments::new_v1</text>
</g>
<!-- m2::baz&#45;&gt;std::fmt::Arguments::new_v1 -->
<g id="edge7" class="edge">
<title>m2::baz&#45;&gt;std::fmt::Arguments::new_v1</title>
<path fill="none" stroke="black" d="M349.83,-281.49C380.93,-270.92 425.99,-255.61 461.78,-243.44"/>
<polygon fill="black" stroke="black" points="463.27,-246.63 471.61,-240.1 461.02,-240.01 463.27,-246.63"/>
</g>
<!-- std::io::_print -->
<g id="node12" class="node">
<title>std::io::_print</title>
<ellipse fill="none" stroke="black" cx="755" cy="-223" rx="72.59" ry="18"/>
<text text-anchor="middle" x="755" y="-219.3" font-family="Times,serif" font-size="14.00">std::io::_print</text>
</g>
<!-- m2::baz&#45;&gt;std::io::_print -->
<g id="edge8" class="edge">
<title>m2::baz&#45;&gt;std::io::_print</title>
<path fill="none" stroke="black" d="M349.65,-289.32C414.87,-280.84 555.28,-261.85 673,-241 679.2,-239.9 685.65,-238.69 692.09,-237.43"/>
<polygon fill="black" stroke="black" points="693.03,-240.81 702.15,-235.43 691.66,-233.95 693.03,-240.81"/>
</g>
</g>
</svg>
